PathFileType	4	(X/Y/Z)	C:/Users/opensim2020/Desktop/walking_exp_matlab/subject03_walking10_straight_03.trc	
DataRate	CameraRate	NumFrames	NumMarkers	Units	OrigDataRate	OrigDataStartFrame	OrigNumFrames	
100.00	100.00	4	45	mm	100.00	3050	417	
Frame#	Time	LFHD			RFHD			LBHD			RBHD			C7			T10			CLAV			STRN			RBAK			LSHO			LUPA			LELB			LFRM			LWRA			LWRB			LFIN			RSHO			RUPA			RELB			RFRM			RWRA			RWRB			RFIN			LASI			RASI			LPSI			RPSI			LTHI			LKNE			LTIB			LANK			LHEE			LTOE			RTHI			RKNE			RTIB			RANK			RHEE			RTOE			*39			*40			*41			*42			*43			*44			
		X1	Y1	Z1	X2	Y2	Z2	X3	Y3	Z3	X4	Y4	Z4	X5	Y5	Z5	X6	Y6	Z6	X7	Y7	Z7	X8	Y8	Z8	X9	Y9	Z9	X10	Y10	Z10	X11	Y11	Z11	X12	Y12	Z12	X13	Y13	Z13	X14	Y14	Z14	X15	Y15	Z15	X16	Y16	Z16	X17	Y17	Z17	X18	Y18	Z18	X19	Y19	Z19	X20	Y20	Z20	X21	Y21	Z21	X22	Y22	Z22	X23	Y23	Z23	X24	Y24	Z24	X25	Y25	Z25	X26	Y26	Z26	X27	Y27	Z27	X28	Y28	Z28	X29	Y29	Z29	X30	Y30	Z30	X31	Y31	Z31	X32	Y32	Z32	X33	Y33	Z33	X34	Y34	Z34	X35	Y35	Z35	X36	Y36	Z36	X37	Y37	Z37	X38	Y38	Z38	X39	Y39	Z39	X40	Y40	Z40	X41	Y41	Z41	X42	Y42	Z42	X43	Y43	Z43	X44	Y44	Z44	X45	Y45	Z45	

313	3.120	1347.61755	894.64771	1620.65674	1480.31091	890.24237	1625.61377	1349.68738	775.99066	1554.51648	1480.61023	777.33533	1560.10046	1400.12781	761.30347	1409.83704	1399.72144	727.26483	1097.63123	1408.70630	882.93707	1333.47180	1401.96606	926.51807	1168.43750	1488.96033	701.72418	1233.90259	1252.57861	851.55811	1373.64417	1174.88306	885.30188	1187.72351	1161.87585	930.80365	1074.16443	1173.92969	1009.26721	972.01978	1216.13489	1074.15613	877.78961	1163.06116	1059.97473	870.23145	1180.04211	1113.57373	808.18915	1565.29907	826.63800	1352.54492	1633.41919	824.61426	1128.79932	1645.57495	838.66187	1016.79425	1648.71655	853.81226	880.41528	1615.34631	885.06085	784.84375	1656.87500	850.40961	779.55310	1648.01855	873.56366	708.27753	1285.70300	890.51184	932.05896	1524.14124	890.21997	934.05707	1336.96973	729.38806	958.33887	1485.63330	728.78473	960.73804	1259.94104	805.45367	633.93463	1302.78552	780.10736	458.78418	1306.48474	698.73779	279.11917	1353.80811	646.85498	75.95578	1392.17151	604.50232	43.61356	1364.65186	796.46924	35.31574	1580.82996	893.33240	642.93359	1546.79724	972.55737	480.65793	1553.14758	982.46271	294.97595	1515.54858	1030.92493	81.55244	1458.35266	1001.39331	42.87657	1508.65967	1176.03711	68.67423	1398.07654	801.41260	1666.01428															 
314	3.130	1348.84131	901.15338	1620.22437	1481.58289	896.76923	1624.78821	1350.69556	782.66626	1553.75427	1481.65320	783.99255	1558.99707	1400.92249	768.20111	1409.24536	1401.00427	734.90247	1096.87146	1409.13757	889.88733	1332.71326	1402.10376	933.39014	1167.59155	1489.67432	708.78857	1233.17749	1253.01538	857.98450	1373.01367	1175.66541	891.10876	1186.86145	1162.88940	936.61371	1073.27124	1175.34192	1014.99341	971.20978	1218.02930	1080.12256	877.39795	1164.97351	1065.66711	869.30670	1182.25195	1119.50452	807.48669	1565.90283	834.02240	1351.47815	1633.60815	831.53821	1127.63953	1645.58826	844.96863	1015.44598	1648.84204	859.15985	878.99481	1615.43884	889.49243	783.10028	1657.02637	854.86700	778.13281	1647.89526	877.06769	706.36639	1285.99475	896.70526	931.33075	1524.83679	897.37427	933.28619	1337.77466	735.66669	957.50104	1486.49255	735.57684	960.02667	1260.20044	810.21332	633.63434	1302.91394	784.06232	458.72836	1306.53333	700.81195	279.39221	1353.65710	647.10864	76.55433	1391.98511	604.59015	44.58372	1364.83521	796.33453	35.27699	1580.44482	898.54724	641.58112	1546.04504	977.99829	479.50116	1552.89734	990.95874	294.48807	1515.55493	1043.54016	81.79617	1458.73389	1015.06573	42.79803	1508.80249	1189.24854	70.75455	1399.26770	807.72034	1664.99561															 
315	3.140	1350.11731	907.69098	1619.82715	1482.89966	903.28577	1624.01416	1351.75208	789.48340	1553.02576	1482.70947	790.74384	1557.91064	1402.10510	775.28430	1408.45789	1401.96558	741.76276	1096.33899	1409.54797	896.92902	1332.00195	1402.31274	940.31940	1166.86121	1490.41687	715.88495	1232.45605	1253.50818	864.52478	1372.45142	1176.51941	897.10077	1186.12085	1164.02722	942.08276	1072.25232	1176.75720	1020.47675	970.19421	1219.76868	1085.61365	876.59967	1166.71558	1071.05786	868.23511	1184.49219	1124.97095	806.47052	1566.54810	841.54126	1350.49792	1633.72083	838.54279	1126.50439	1645.62146	851.45453	1014.24817	1648.74805	864.33167	877.53436	1615.53735	894.07288	781.47345	1657.17065	859.39362	776.84967	1648.30713	881.09338	705.10028	1286.43237	903.14618	930.59784	1525.31848	904.30859	932.39740	1338.72766	741.76227	956.81885	1487.42334	742.43854	959.35309	1260.56982	814.98743	633.27399	1302.88904	787.72650	458.24313	1306.54211	703.09100	279.73267	1353.49573	647.47833	77.27816	1391.97559	604.47351	45.93697	1364.67102	796.47601	35.29276	1579.96753	904.11279	640.41516	1545.18066	983.84717	478.34161	1552.82898	999.06964	293.98859	1515.65186	1054.75586	81.87288	1458.67383	1026.56079	42.66150	1508.70898	1200.79919	72.40638	1400.73083	814.27234	1664.35754															 
316	3.150	1351.44299	914.40576	1619.53235	1484.21777	909.87897	1623.31519	1352.78271	796.34412	1552.39783	1483.82471	797.49170	1556.94031	1403.03601	782.45026	1407.89490	1402.88074	748.48621	1095.85791	1410.03784	904.10724	1331.35132	1402.56262	947.36285	1166.17188	1491.27051	723.13477	1231.88745	1254.12903	871.12024	1371.94385	1177.37512	902.98572	1185.26172	1165.16235	947.62909	1071.20325	1178.18311	1025.84692	969.10126	1221.46533	1090.91199	875.55902	1168.74170	1076.21155	866.85846	1186.77063	1130.05469	805.13873	1567.22900	849.05554	1349.60864	1634.00024	845.58496	1125.44128	1645.58716	858.11902	1013.11261	1648.84717	869.85706	876.34869	1615.71545	898.78522	779.98395	1657.28430	864.13812	775.67297	1648.44385	885.04510	703.70404	1287.08826	909.39984	929.92883	1525.79773	911.40454	931.63745	1339.82397	747.52423	956.16687	1488.37854	749.48059	958.79816	1260.90161	819.73914	633.04486	1302.96057	791.68390	458.09940	1306.58679	705.26117	280.21893	1353.34583	647.94196	78.29061	1391.64856	604.90826	47.10184	1364.65027	796.55072	35.27034	1579.59387	910.05914	639.44824	1545.08276	989.96307	477.57828	1552.64539	1006.81805	293.47369	1515.88220	1064.48853	81.88511	1459.02209	1036.54749	42.17845	1508.21106	1210.42798	73.33734	1402.13293	820.75763	1663.72400															 
